<?xml version="1.0" encoding="utf-8"?>
<!-- Generator: Adobe Illustrator 24.0.0, SVG Export Plug-In . SVG Version: 6.00 Build 0)  -->
<svg version="1.1" id="Слой_1" xmlns="http://www.w3.org/2000/svg" xmlns:xlink="http://www.w3.org/1999/xlink" x="0px" y="0px"
	 viewBox="0 0 64 48" style="enable-background:new 0 0 64 48;" xml:space="preserve">
<style type="text/css">
	.st0{fill:#38468C;}
</style>
<path class="st0" d="M56.02,0H39L9,40h31c0-1.46,0.4-2.82,1.08-4H17L41,4h15.02C58.22,4,60,5.78,60,7.98v24.04
	c0,2.19-1.78,3.98-3.98,3.98h-1.1C55.6,37.18,56,38.54,56,40h0.02c4.41,0,7.98-3.57,7.98-7.98V7.98C64,3.57,60.43,0,56.02,0z"/>
<g>
	<polygon class="st0" points="32,4 0,4 3,0 35,0 	"/>
</g>
<g>
	<polygon class="st0" points="26,12 0,12 3,8 29,8 	"/>
</g>
<g>
	<polygon class="st0" points="20,20 0,20 3,16 23,16 	"/>
</g>
<g>
	<polygon class="st0" points="14,28 0,28 3,24 17,24 	"/>
</g>
<g>
	<polygon class="st0" points="8,36 0,36 3,32 11,32 	"/>
</g>
<path class="st0" d="M48,36c2.21,0,4,1.79,4,4s-1.79,4-4,4s-4-1.79-4-4S45.79,36,48,36 M48,32c-4.42,0-8,3.58-8,8s3.58,8,8,8
	s8-3.58,8-8S52.42,32,48,32L48,32z"/>
</svg>
